<?xml version="1.0" standalone="no"?>
<!DOCTYPE svg PUBLIC "-//W3C//DTD SVG 20010904//EN"
 "http://www.w3.org/TR/2001/REC-SVG-20010904/DTD/svg10.dtd">
<svg version="1.0" xmlns="http://www.w3.org/2000/svg"
 width="64.000000pt" height="64.000000pt" viewBox="0 0 64.000000 64.000000"
 preserveAspectRatio="xMidYMid meet">

<g transform="translate(0.000000,64.000000) scale(0.100000,-0.100000)"
fill="#000000" stroke="none">
<path d="M180 620 c-7 -13 -21 -20 -39 -20 -59 0 -61 -10 -61 -298 0 -249 1
-263 20 -282 19 -19 33 -20 220 -20 187 0 201 1 220 20 19 19 20 33 20 283 0
243 -1 265 -18 280 -10 10 -30 17 -45 17 -16 0 -30 8 -37 20 -10 18 -21 20
-140 20 -119 0 -130 -2 -140 -20z m248 -37 c-3 -16 -16 -18 -108 -18 -92 0
-105 2 -108 18 -3 15 7 17 108 17 101 0 111 -2 108 -17z m-244 -38 c4 -12 29
-15 136 -15 107 0 132 3 136 15 8 20 60 19 68 -1 11 -28 7 -464 -4 -485 -10
-18 -23 -19 -198 -19 -133 0 -192 4 -200 12 -13 13 -18 461 -6 492 8 20 60 21
68 1z"/>
<path d="M225 440 c-11 -12 -25 -18 -36 -15 -27 9 -34 -15 -10 -38 l21 -21 40
39 c22 21 40 43 40 47 0 16 -37 8 -55 -12z"/>
<path d="M317 424 c-4 -4 -7 -14 -7 -21 0 -11 18 -13 83 -11 65 2 82 6 82 18
0 12 -16 16 -75 18 -42 1 -79 0 -83 -4z"/>
<path d="M230 305 c-18 -19 -26 -22 -37 -13 -10 8 -17 8 -25 0 -9 -9 -7 -17 7
-32 10 -11 23 -20 30 -20 18 0 78 67 71 79 -11 16 -20 14 -46 -14z"/>
<path d="M310 286 c0 -19 23 -26 88 -26 61 0 89 11 78 29 -11 17 -166 15 -166
-3z"/>
<path d="M226 181 c-10 -11 -25 -17 -35 -14 -29 7 -36 -17 -12 -40 l21 -21 40
39 c22 21 40 43 40 47 0 15 -37 8 -54 -11z"/>
<path d="M317 174 c-4 -4 -7 -14 -7 -21 0 -11 18 -13 83 -11 65 2 82 6 82 18
0 12 -16 16 -75 18 -42 1 -79 0 -83 -4z"/>
</g>
</svg>
